<svg id="圖層_1" data-name="圖層 1" xmlns="http://www.w3.org/2000/svg" viewBox="0 0 117.2 140"><defs><style>.cls-1{fill:#00b8b0;}</style></defs><path class="cls-1" d="M62.94,59.64H114v71q-5.66,2.84-16.39,5.09A113.29,113.29,0,0,1,74.24,138,88.82,88.82,0,0,1,46,133.69a63.65,63.65,0,0,1-22.52-12.81A58.41,58.41,0,0,1,8.57,99.77Q3.2,87.16,3.2,70.75A82.67,82.67,0,0,1,7.63,43.24,57.57,57.57,0,0,1,21.1,21.48,62.65,62.65,0,0,1,43.81,7.16Q57.48,2,75.94,2A102,102,0,0,1,97.42,3.86,111.17,111.17,0,0,1,110,7.25l-1.88,28.08a47.61,47.61,0,0,0-12.44-5.28A60.39,60.39,0,0,0,79.33,28a46.28,46.28,0,0,0-17.71,3.11,31.76,31.76,0,0,0-12.35,8.76,36.94,36.94,0,0,0-7.16,13.57,61.27,61.27,0,0,0-2.35,17.52A59.58,59.58,0,0,0,42,88.09a37.16,37.16,0,0,0,6.31,12.62,28.43,28.43,0,0,0,9.42,7.82,25.11,25.11,0,0,0,11.59,2.74,40.81,40.81,0,0,0,6.41-.48A13,13,0,0,0,80.84,109V84.13H62.94Z"/></svg>