<svg id="圖層_1" data-name="圖層 1" xmlns="http://www.w3.org/2000/svg" viewBox="0 0 105.32 140"><defs><style>.cls-1{fill:aqua;}</style></defs><path class="cls-1" d="M37.21,86.39a55.61,55.61,0,0,0,.47,10,22.25,22.25,0,0,0,2.45,7.73,12.91,12.91,0,0,0,4.9,5,15.11,15.11,0,0,0,7.63,1.79,14.59,14.59,0,0,0,7.54-1.79,13.09,13.09,0,0,0,4.8-5,22.46,22.46,0,0,0,2.45-7.73,69.38,69.38,0,0,0,.66-10V3.11h34.67V85.26q0,14.52-4,24.31a42.46,42.46,0,0,1-10.74,15.92,39.84,39.84,0,0,1-15.93,8.76,69.93,69.93,0,0,1-19.5,2.64,69.93,69.93,0,0,1-19.5-2.64,39.67,39.67,0,0,1-15.92-8.76A42.37,42.37,0,0,1,6.49,109.57Q2.55,99.78,2.54,85.26V3.11H37.21Z"/></svg>