<svg id="圖層_1" data-name="圖層 1" xmlns="http://www.w3.org/2000/svg" viewBox="0 0 96.19 140"><defs><style>.cls-1{fill:#ffcd5c;}</style></defs><path class="cls-1" d="M37.54,135.76H2.12V4.24H45.83a80.22,80.22,0,0,1,19,2.16,41,41,0,0,1,15.35,7.16A33.45,33.45,0,0,1,90.4,26.94q3.67,8.39,3.67,20.83a49.21,49.21,0,0,1-3,17.8,36,36,0,0,1-8.58,13.19A37.32,37.32,0,0,1,69.2,87a49.15,49.15,0,0,1-17,2.83H37.54Zm4.71-71.22A15.94,15.94,0,0,0,54,59.92q4.62-4.62,4.62-12.53,0-9.24-4.62-13.57T41.31,29.49H36V64.54Z"/></svg>