<svg id="圖層_1" data-name="圖層 1" xmlns="http://www.w3.org/2000/svg" viewBox="0 0 102.8 140"><defs><style>.cls-1{fill:aqua;}</style></defs><path class="cls-1" d="M54.32,98.45a31.12,31.12,0,0,0-3-7.53,14.44,14.44,0,0,0-3.58-4.24,10.34,10.34,0,0,0-4-1.89,20.17,20.17,0,0,0-4.24-.47H37.55v51.44H2.12V4.24H54.7q20,0,30.8,8.57T96.34,39.66A30.13,30.13,0,0,1,94,52.19,28.59,28.59,0,0,1,88,61a29.59,29.59,0,0,1-8.1,5.65,50.84,50.84,0,0,1-8.76,3.2v.57a30.2,30.2,0,0,1,5.18,2.26,16.18,16.18,0,0,1,4.52,4,29.19,29.19,0,0,1,4,7,105.8,105.8,0,0,1,4,11.11l11.87,41.08H64.12ZM46.4,59.07a15,15,0,0,0,10.09-3.86,13,13,0,0,0,4.42-10.27,16.87,16.87,0,0,0-3.58-11.12q-3.57-4.34-11.49-4.33H36V59.07Z"/></svg>