<svg id="圖層_1" data-name="圖層 1" xmlns="http://www.w3.org/2000/svg" viewBox="0 0 120 140"><defs><style>.cls-1{fill:#e7ff49;}</style></defs><path class="cls-1" d="M1.59,70q0-18.27,5.08-31.19t13.38-21.1a51.15,51.15,0,0,1,18.75-12,61.49,61.49,0,0,1,42.4,0,51.15,51.15,0,0,1,18.75,12,60.46,60.46,0,0,1,13.38,21.1q5.08,12.92,5.08,31.19t-5.08,31.19A60.55,60.55,0,0,1,100,122.29a51.15,51.15,0,0,1-18.75,12,61.49,61.49,0,0,1-42.4,0,51.15,51.15,0,0,1-18.75-12,60.41,60.41,0,0,1-13.38-21.1Q1.59,88.28,1.59,70Zm36,0q0,19.6,5.46,31.19t16.58,11.58h.19q11.11,0,16.58-11.58T81.86,70a106.79,106.79,0,0,0-1.32-17.52A48.89,48.89,0,0,0,76.49,39a23.58,23.58,0,0,0-6.88-8.66,15.82,15.82,0,0,0-9.8-3.11A15.82,15.82,0,0,0,50,30.34,24.5,24.5,0,0,0,43,39,46.55,46.55,0,0,0,38.9,52.48,106.79,106.79,0,0,0,37.58,70Z"/></svg>