<svg width="52" height="52" viewBox="0 0 52 52" fill="none" xmlns="http://www.w3.org/2000/svg">
<path d="M30.9 20.7998V27.2998C30.9 27.4998 30.8 27.5996 30.6 27.5996H29.6C29.5 27.5996 29.4 27.5 29.4 27.5L26.4 23.5V27.3999C26.4 27.5999 26.3 27.6997 26.1 27.6997H25.1C24.9 27.6997 24.8 27.5999 24.8 27.3999V20.8999C24.8 20.6999 24.9 20.5996 25.1 20.5996H26.1C26.2 20.5996 26.3 20.5997 26.3 20.6997L29.3 24.6997V20.7998C29.3 20.5998 29.4 20.5 29.6 20.5H30.6C30.8 20.5 30.9 20.6998 30.9 20.7998ZM23.4 20.5H22.4C22.2 20.5 22.1 20.5998 22.1 20.7998V27.2998C22.1 27.4998 22.2 27.5996 22.4 27.5996H23.4C23.6 27.5996 23.7 27.4998 23.7 27.2998V20.7998C23.7 20.6998 23.5 20.5 23.4 20.5ZM20.9 26H18V20.7998C18 20.5998 17.9 20.5 17.7 20.5H16.7C16.5 20.5 16.4 20.5998 16.4 20.7998V27.2998C16.4 27.3998 16.4 27.4 16.5 27.5C16.6 27.5 16.6 27.5996 16.7 27.5996H20.9C21.1 27.5996 21.2 27.4998 21.2 27.2998V26.2998C21.1 26.0998 21 26 20.9 26ZM36.4 20.5H32.2C32 20.5 31.9 20.5998 31.9 20.7998V27.2998C31.9 27.4998 32 27.5996 32.2 27.5996H36.4C36.6 27.5996 36.7 27.4998 36.7 27.2998V26.1997C36.7 25.9997 36.6 25.8999 36.4 25.8999H33.6V24.7998H36.4C36.6 24.7998 36.7 24.7 36.7 24.5V23.3999C36.7 23.1999 36.6 23.0996 36.4 23.0996H33.6V22H36.4C36.6 22 36.7 21.8997 36.7 21.6997V20.6997C36.7 20.6997 36.5 20.5 36.4 20.5ZM47 12.5V38.5996C47 42.6996 43.6 46 39.5 46H13.4C9.29996 46 6 42.6 6 38.5V12.3999C6 8.2999 9.4 5 13.5 5H39.6C43.7 5.1 47 8.4 47 12.5ZM41.4 23.7998C41.4 17.0998 34.7 11.6997 26.5 11.6997C18.3 11.6997 11.6 17.0998 11.6 23.7998C11.6 29.7998 16.9 34.7998 24.1 35.7998C25.8 36.1998 25.6 36.7997 25.3 39.1997C25.2 39.5997 25 40.7 26.6 40C28.2 39.3 35.2 34.8998 38.3 31.2998C40.3 28.8998 41.4 26.4998 41.4 23.7998Z" fill="black"/>
</svg>
