<svg width="52" height="52" viewBox="0 0 52 52" fill="none" xmlns="http://www.w3.org/2000/svg">
<path d="M18.9917 9.71239C18.4917 8.41239 17.0918 7.71229 15.6918 8.11229L15.2918 8.21239C10.8918 9.41239 7.09179 13.7121 8.19179 18.9121C10.6918 30.8121 20.0917 40.2125 32.0917 42.8125C37.2917 43.9125 41.5918 40.1124 42.7918 35.7124L42.8917 35.3125C43.2917 34.0125 42.5918 32.6122 41.2918 32.0122L34.6918 29.2124C33.5918 28.7124 32.2917 29.1122 31.4917 30.0122L28.8917 33.2124C24.0917 30.8124 20.1917 26.8121 17.9917 21.9121L20.9917 19.4121C21.8917 18.6121 22.2918 17.3124 21.7918 16.2124L18.9917 9.71239Z" fill="black"/>
</svg>
