<svg width="52" height="52" viewBox="0 0 52 52" fill="none" xmlns="http://www.w3.org/2000/svg">
<path d="M8.40002 9C5.40002 9 3 11.3999 3 14.3999C3 14.4999 3 14.5001 3 14.6001V37C3 40.1 5.50004 42.6001 8.60004 42.6001H42.2C45.3 42.6001 47.8 40.1 47.8 37V14.6001C47.8 14.5001 47.8 14.4999 47.8 14.3999C47.8 11.3999 45.4 9 42.4 9H8.40002ZM43.7 20.2998V37.1001C43.7 37.9001 43.1 38.5 42.3 38.5H8.70001C7.90001 38.5 7.29999 37.9001 7.29999 37.1001V20.2998L20.8 30.6001C23.5 32.7001 27.4 32.7001 30.1 30.6001L43.7 20.2998ZM7.29999 14.3999C7.29999 13.7999 7.8 13.2002 8.5 13.2002H42.5C43.1 13.2002 43.7 13.6999 43.7 14.3999C43.7 14.7999 43.5 15.0998 43.2 15.2998L27.6 27.1001C26.3 28.0001 24.6 28.0001 23.4 27.1001L7.79999 15.2998C7.49999 15.0998 7.29999 14.7999 7.29999 14.3999Z" fill="black"/>
</svg>
