<svg width="52" height="52" viewBox="0 0 52 52" fill="none" xmlns="http://www.w3.org/2000/svg">
<path d="M17.4 42.1001H10.5V20H17.4V42.1001ZM14 17C11.8 17 10 15.2 10 13C10 11.9 10.4 10.9002 11.2 10.2002C11.9 9.5002 13 9 14 9C15 9 16.1 9.4002 16.8 10.2002C17.5 10.9002 18 12 18 13C18 15.2 16.2 17 14 17ZM43.1 42.1001H36.2V31.3003C36.2 28.7003 36.1 25.4004 32.6 25.4004C29 25.4004 28.5 28.2001 28.5 31.1001V42H21.6V19.9004H28.2V22.9004H28.3C29.2 21.2004 31.5 19.3003 34.8 19.3003C41.7 19.3003 43 23.9003 43 29.8003L43.1 42.1001Z" fill="black"/>
</svg>
