<svg width="131" height="78" viewBox="0 0 131 78" fill="none" xmlns="http://www.w3.org/2000/svg">
<path d="M24.9 30.9H14V52.1H0V0H14V20H24.9V0H38.9V52.1H24.9V30.9Z" fill="white"/>
<path d="M42.8 40.2H54.7V52.1H42.8V40.2Z" fill="white"/>
<path d="M57.8 33.1L42.1 0H58.1L65.3 20H65.4L72.2 0H87.6L71.9 33.1V52H57.9V33.1H57.8Z" fill="white"/>
<path d="M75.6 40.2H87.5V52.1H75.6V40.2Z" fill="white"/>
<path d="M116.4 30.9H105.5V52.1H91.5V0H105.5V20H116.4V0H130.4V52.1H116.4V30.9Z" fill="white"/>
<path d="M99.6 71.8H30.8V77.8H99.6V71.8Z" fill="white"/>
</svg>
